<?xml version="1.0" standalone="no"?>
<!DOCTYPE svg PUBLIC "-//W3C//DTD SVG 20010904//EN"
 "http://www.w3.org/TR/2001/REC-SVG-20010904/DTD/svg10.dtd">
<svg version="1.0" xmlns="http://www.w3.org/2000/svg"
 width="500.000000pt" height="500.000000pt" viewBox="0 0 500.000000 500.000000"
 preserveAspectRatio="xMidYMid meet">
<metadata>
Created by potrace 1.11, written by Peter Selinger 2001-2013
</metadata>
<g transform="translate(0.000000,500.000000) scale(0.100000,-0.100000)"
fill="#000000" stroke="none">
<path d="M2465 4182 c-16 -11 -172 -120 -345 -243 -173 -123 -460 -327 -637
-453 -178 -126 -325 -237 -328 -247 -11 -33 -10 -1488 0 -1498 9 -8 313 -226
369 -263 10 -7 28 -20 40 -29 11 -9 140 -100 286 -203 146 -103 274 -194 285
-202 179 -130 350 -244 368 -244 12 0 94 52 182 115 88 62 273 194 410 291
138 98 364 258 503 357 l252 180 1 96 c1 53 2 388 4 745 l2 649 -26 28 c-14
15 -55 47 -91 71 -73 51 -267 188 -960 680 -176 125 -269 188 -278 188 -4 0
-20 -8 -37 -18z m-30 -836 l0 -632 -35 -25 c-19 -14 -63 -45 -97 -68 l-61 -44
-94 66 c-51 37 -101 72 -111 79 -11 7 -44 31 -75 54 -32 22 -154 109 -272 193
-118 83 -245 173 -282 199 l-67 48 259 185 c143 101 387 275 543 385 155 111
284 200 287 197 3 -3 5 -289 5 -637z m695 249 c278 -196 511 -362 518 -369 11
-10 -2 -24 -70 -73 -92 -66 -759 -540 -797 -565 -22 -16 -25 -15 -70 18 -25
19 -70 51 -98 71 l-53 36 2 631 c1 347 3 634 5 639 3 4 16 -1 31 -12 15 -10
254 -179 532 -376z m-1621 -667 c34 -24 73 -52 89 -63 15 -11 139 -99 275
-195 l248 -175 -32 -25 c-18 -14 -205 -147 -416 -297 l-383 -272 1 589 2 590
78 -55 c43 -30 105 -74 138 -97z m2204 -95 c-1 -137 -2 -402 -3 -591 l0 -343
-67 48 c-38 26 -142 100 -233 164 -91 65 -194 138 -230 164 -36 25 -118 84
-183 130 l-117 83 182 130 c297 211 652 462 652 462 1 0 0 -111 -1 -247z
m-1135 -287 l72 -53 -73 -51 -73 -51 -73 51 c-39 27 -71 54 -69 59 3 9 129 99
137 99 4 -1 39 -25 79 -54z m-238 -207 c56 -39 100 -78 101 -87 2 -42 -2
-1247 -4 -1249 -2 -1 -79 52 -172 118 -94 66 -181 128 -195 137 -14 9 -29 21
-35 25 -5 5 -62 45 -126 90 -459 324 -568 403 -568 407 0 3 143 106 317 228
174 123 328 232 342 242 111 81 226 160 232 160 4 0 52 -32 108 -71z m884
-249 l445 -315 -31 -25 c-25 -21 -530 -381 -763 -545 -33 -23 -114 -81 -180
-128 -66 -47 -122 -82 -125 -77 -4 6 -5 1162 -1 1252 1 15 188 159 203 155 3
-1 207 -144 452 -317z"/>
</g>
</svg>
